<mxfile host="Electron" agent="Mozilla/5.0 (Windows NT 10.0; Win64; x64) AppleWebKit/537.36 (KHTML, like Gecko) draw.io/24.7.17 Chrome/128.0.6613.36 Electron/32.0.1 Safari/537.36" version="24.7.17">
  <diagram name="Page-1" id="DlKLC4u3FCPUAg6emO8c">
    <mxGraphModel dx="1434" dy="836" grid="1" gridSize="10" guides="1" tooltips="1" connect="1" arrows="1" fold="1" page="1" pageScale="1" pageWidth="3300" pageHeight="4681" math="0" shadow="0">
      <root>
        <mxCell id="0" />
        <mxCell id="1" parent="0" />
        <mxCell id="ZVdhp5Pi1UJ5fs57FUtf-3" style="edgeStyle=orthogonalEdgeStyle;rounded=0;orthogonalLoop=1;jettySize=auto;html=1;entryX=0.5;entryY=0;entryDx=0;entryDy=0;" parent="1" source="ZVdhp5Pi1UJ5fs57FUtf-1" target="ZVdhp5Pi1UJ5fs57FUtf-2" edge="1">
          <mxGeometry relative="1" as="geometry" />
        </mxCell>
        <mxCell id="ZVdhp5Pi1UJ5fs57FUtf-1" value="&lt;font style=&quot;font-size: 24px;&quot;&gt;START&lt;/font&gt;" style="ellipse;whiteSpace=wrap;html=1;" parent="1" vertex="1">
          <mxGeometry x="620" y="30" width="170" height="120" as="geometry" />
        </mxCell>
        <mxCell id="ZVdhp5Pi1UJ5fs57FUtf-8" style="edgeStyle=orthogonalEdgeStyle;rounded=0;orthogonalLoop=1;jettySize=auto;html=1;entryX=0.5;entryY=0;entryDx=0;entryDy=0;" parent="1" source="ZVdhp5Pi1UJ5fs57FUtf-2" target="ZVdhp5Pi1UJ5fs57FUtf-4" edge="1">
          <mxGeometry relative="1" as="geometry" />
        </mxCell>
        <mxCell id="ZVdhp5Pi1UJ5fs57FUtf-9" style="edgeStyle=orthogonalEdgeStyle;rounded=0;orthogonalLoop=1;jettySize=auto;html=1;exitX=1;exitY=0.5;exitDx=0;exitDy=0;entryX=0.5;entryY=0;entryDx=0;entryDy=0;" parent="1" source="ZVdhp5Pi1UJ5fs57FUtf-2" target="ZVdhp5Pi1UJ5fs57FUtf-7" edge="1">
          <mxGeometry relative="1" as="geometry" />
        </mxCell>
        <mxCell id="ZVdhp5Pi1UJ5fs57FUtf-10" style="edgeStyle=orthogonalEdgeStyle;rounded=0;orthogonalLoop=1;jettySize=auto;html=1;exitX=0.25;exitY=1;exitDx=0;exitDy=0;" parent="1" source="ZVdhp5Pi1UJ5fs57FUtf-2" target="ZVdhp5Pi1UJ5fs57FUtf-5" edge="1">
          <mxGeometry relative="1" as="geometry" />
        </mxCell>
        <mxCell id="ZVdhp5Pi1UJ5fs57FUtf-11" style="edgeStyle=orthogonalEdgeStyle;rounded=0;orthogonalLoop=1;jettySize=auto;html=1;exitX=0.75;exitY=1;exitDx=0;exitDy=0;entryX=0.5;entryY=0;entryDx=0;entryDy=0;" parent="1" source="ZVdhp5Pi1UJ5fs57FUtf-2" target="ZVdhp5Pi1UJ5fs57FUtf-6" edge="1">
          <mxGeometry relative="1" as="geometry" />
        </mxCell>
        <mxCell id="ZVdhp5Pi1UJ5fs57FUtf-2" value="&lt;font style=&quot;font-size: 24px;&quot;&gt;INPUT A, B AND DECLARE Operator&lt;/font&gt;" style="shape=parallelogram;perimeter=parallelogramPerimeter;whiteSpace=wrap;html=1;fixedSize=1;" parent="1" vertex="1">
          <mxGeometry x="570" y="270" width="270" height="100" as="geometry" />
        </mxCell>
        <mxCell id="ZVdhp5Pi1UJ5fs57FUtf-4" value="&lt;font style=&quot;font-size: 24px;&quot;&gt;IF Operator is Plus ( + )&lt;/font&gt;" style="rhombus;whiteSpace=wrap;html=1;" parent="1" vertex="1">
          <mxGeometry x="180" y="450" width="200" height="150" as="geometry" />
        </mxCell>
        <mxCell id="ZVdhp5Pi1UJ5fs57FUtf-5" value="&lt;font style=&quot;font-size: 24px;&quot;&gt;IF Operator is Minus ( - )&lt;/font&gt;" style="rhombus;whiteSpace=wrap;html=1;" parent="1" vertex="1">
          <mxGeometry x="460" y="450" width="200" height="150" as="geometry" />
        </mxCell>
        <mxCell id="ZVdhp5Pi1UJ5fs57FUtf-6" value="&lt;font style=&quot;font-size: 24px;&quot;&gt;IF Operator is Multiplication ( * )&lt;/font&gt;" style="rhombus;whiteSpace=wrap;html=1;" parent="1" vertex="1">
          <mxGeometry x="750" y="450" width="200" height="150" as="geometry" />
        </mxCell>
        <mxCell id="ZVdhp5Pi1UJ5fs57FUtf-7" value="&lt;font style=&quot;font-size: 24px;&quot;&gt;IF Operator is Divide ( / )&lt;/font&gt;" style="rhombus;whiteSpace=wrap;html=1;" parent="1" vertex="1">
          <mxGeometry x="1020" y="450" width="200" height="150" as="geometry" />
        </mxCell>
        <mxCell id="ZVdhp5Pi1UJ5fs57FUtf-12" value="&lt;font style=&quot;font-size: 24px;&quot;&gt;Operator = A + B&lt;/font&gt;" style="rounded=0;whiteSpace=wrap;html=1;" parent="1" vertex="1">
          <mxGeometry x="180" y="690" width="190" height="100" as="geometry" />
        </mxCell>
        <mxCell id="ZVdhp5Pi1UJ5fs57FUtf-13" value="&lt;br&gt;&lt;font style=&quot;font-size: 24px;&quot;&gt;&lt;span style=&quot;color: rgb(240, 240, 240); font-family: Helvetica; font-style: normal; font-variant-ligatures: normal; font-variant-caps: normal; font-weight: 400; letter-spacing: normal; orphans: 2; text-align: center; text-indent: 0px; text-transform: none; widows: 2; word-spacing: 0px; -webkit-text-stroke-width: 0px; white-space: normal; background-color: rgb(27, 29, 30); text-decoration-thickness: initial; text-decoration-style: initial; text-decoration-color: initial; float: none; display: inline !important;&quot;&gt;Operator = A - B&lt;/span&gt;&lt;br&gt;&lt;/font&gt;" style="rounded=0;whiteSpace=wrap;html=1;" parent="1" vertex="1">
          <mxGeometry x="465" y="680" width="190" height="100" as="geometry" />
        </mxCell>
        <mxCell id="ZVdhp5Pi1UJ5fs57FUtf-14" value="&lt;br&gt;&lt;font style=&quot;font-size: 24px;&quot;&gt;&lt;span style=&quot;color: rgb(240, 240, 240); font-family: Helvetica; font-style: normal; font-variant-ligatures: normal; font-variant-caps: normal; font-weight: 400; letter-spacing: normal; orphans: 2; text-align: center; text-indent: 0px; text-transform: none; widows: 2; word-spacing: 0px; -webkit-text-stroke-width: 0px; white-space: normal; background-color: rgb(27, 29, 30); text-decoration-thickness: initial; text-decoration-style: initial; text-decoration-color: initial; float: none; display: inline !important;&quot;&gt;Operator = A * B&lt;/span&gt;&lt;br&gt;&lt;/font&gt;" style="rounded=0;whiteSpace=wrap;html=1;" parent="1" vertex="1">
          <mxGeometry x="755" y="680" width="190" height="100" as="geometry" />
        </mxCell>
        <mxCell id="ZVdhp5Pi1UJ5fs57FUtf-15" value="&lt;br&gt;&lt;font style=&quot;font-size: 24px;&quot;&gt;&lt;span style=&quot;color: rgb(240, 240, 240); font-family: Helvetica; font-style: normal; font-variant-ligatures: normal; font-variant-caps: normal; font-weight: 400; letter-spacing: normal; orphans: 2; text-align: center; text-indent: 0px; text-transform: none; widows: 2; word-spacing: 0px; -webkit-text-stroke-width: 0px; white-space: normal; background-color: rgb(27, 29, 30); text-decoration-thickness: initial; text-decoration-style: initial; text-decoration-color: initial; float: none; display: inline !important;&quot;&gt;Operator = A / B&lt;/span&gt;&lt;br&gt;&lt;/font&gt;" style="rounded=0;whiteSpace=wrap;html=1;" parent="1" vertex="1">
          <mxGeometry x="1025" y="680" width="190" height="100" as="geometry" />
        </mxCell>
        <mxCell id="ZVdhp5Pi1UJ5fs57FUtf-19" value="" style="endArrow=classic;html=1;rounded=0;" parent="1" target="ZVdhp5Pi1UJ5fs57FUtf-4" edge="1">
          <mxGeometry width="50" height="50" relative="1" as="geometry">
            <mxPoint x="280" y="600" as="sourcePoint" />
            <mxPoint x="330" y="550" as="targetPoint" />
          </mxGeometry>
        </mxCell>
        <mxCell id="ZVdhp5Pi1UJ5fs57FUtf-21" value="" style="endArrow=classic;html=1;rounded=0;" parent="1" edge="1">
          <mxGeometry width="50" height="50" relative="1" as="geometry">
            <mxPoint x="280" y="600" as="sourcePoint" />
            <mxPoint x="280" y="690" as="targetPoint" />
          </mxGeometry>
        </mxCell>
        <mxCell id="ZVdhp5Pi1UJ5fs57FUtf-23" value="" style="endArrow=classic;html=1;rounded=0;" parent="1" edge="1">
          <mxGeometry width="50" height="50" relative="1" as="geometry">
            <mxPoint x="849.5" y="600" as="sourcePoint" />
            <mxPoint x="850" y="680" as="targetPoint" />
          </mxGeometry>
        </mxCell>
        <mxCell id="ZVdhp5Pi1UJ5fs57FUtf-24" value="" style="endArrow=classic;html=1;rounded=0;exitX=0.5;exitY=1;exitDx=0;exitDy=0;" parent="1" source="ZVdhp5Pi1UJ5fs57FUtf-5" edge="1">
          <mxGeometry width="50" height="50" relative="1" as="geometry">
            <mxPoint x="560" y="620" as="sourcePoint" />
            <mxPoint x="559.5" y="680" as="targetPoint" />
          </mxGeometry>
        </mxCell>
        <mxCell id="ZVdhp5Pi1UJ5fs57FUtf-25" value="" style="endArrow=classic;html=1;rounded=0;" parent="1" edge="1">
          <mxGeometry width="50" height="50" relative="1" as="geometry">
            <mxPoint x="849.5" y="600" as="sourcePoint" />
            <mxPoint x="850" y="680" as="targetPoint" />
          </mxGeometry>
        </mxCell>
        <mxCell id="ZVdhp5Pi1UJ5fs57FUtf-29" value="" style="endArrow=classic;html=1;rounded=0;" parent="1" edge="1">
          <mxGeometry width="50" height="50" relative="1" as="geometry">
            <mxPoint x="1119.5" y="600" as="sourcePoint" />
            <mxPoint x="1120" y="680" as="targetPoint" />
          </mxGeometry>
        </mxCell>
        <mxCell id="ZVdhp5Pi1UJ5fs57FUtf-30" value="&lt;span style=&quot;font-size: 24px;&quot;&gt;PRINT Operator ( Answer )&lt;/span&gt;" style="shape=parallelogram;perimeter=parallelogramPerimeter;whiteSpace=wrap;html=1;fixedSize=1;" parent="1" vertex="1">
          <mxGeometry x="570" y="890" width="270" height="100" as="geometry" />
        </mxCell>
        <mxCell id="ZVdhp5Pi1UJ5fs57FUtf-33" value="" style="endArrow=classic;html=1;rounded=0;entryX=0;entryY=0.5;entryDx=0;entryDy=0;" parent="1" target="ZVdhp5Pi1UJ5fs57FUtf-30" edge="1">
          <mxGeometry width="50" height="50" relative="1" as="geometry">
            <mxPoint x="280" y="790" as="sourcePoint" />
            <mxPoint x="330" y="740" as="targetPoint" />
            <Array as="points">
              <mxPoint x="280" y="940" />
            </Array>
          </mxGeometry>
        </mxCell>
        <mxCell id="ZVdhp5Pi1UJ5fs57FUtf-35" value="" style="endArrow=classic;html=1;rounded=0;entryX=1;entryY=0.5;entryDx=0;entryDy=0;" parent="1" target="ZVdhp5Pi1UJ5fs57FUtf-30" edge="1">
          <mxGeometry width="50" height="50" relative="1" as="geometry">
            <mxPoint x="1120" y="780" as="sourcePoint" />
            <mxPoint x="1170" y="730" as="targetPoint" />
            <Array as="points">
              <mxPoint x="1120" y="940" />
            </Array>
          </mxGeometry>
        </mxCell>
        <mxCell id="ZVdhp5Pi1UJ5fs57FUtf-36" value="" style="endArrow=classic;html=1;rounded=0;entryX=0.367;entryY=0.03;entryDx=0;entryDy=0;entryPerimeter=0;" parent="1" target="ZVdhp5Pi1UJ5fs57FUtf-30" edge="1">
          <mxGeometry width="50" height="50" relative="1" as="geometry">
            <mxPoint x="560" y="780" as="sourcePoint" />
            <mxPoint x="610" y="730" as="targetPoint" />
          </mxGeometry>
        </mxCell>
        <mxCell id="ZVdhp5Pi1UJ5fs57FUtf-37" value="" style="endArrow=classic;html=1;rounded=0;entryX=0.711;entryY=0.01;entryDx=0;entryDy=0;entryPerimeter=0;" parent="1" target="ZVdhp5Pi1UJ5fs57FUtf-30" edge="1">
          <mxGeometry width="50" height="50" relative="1" as="geometry">
            <mxPoint x="850" y="780" as="sourcePoint" />
            <mxPoint x="900" y="730" as="targetPoint" />
          </mxGeometry>
        </mxCell>
        <mxCell id="ZVdhp5Pi1UJ5fs57FUtf-38" value="&lt;font style=&quot;font-size: 24px;&quot;&gt;END&lt;/font&gt;" style="ellipse;whiteSpace=wrap;html=1;" parent="1" vertex="1">
          <mxGeometry x="620" y="1090" width="170" height="120" as="geometry" />
        </mxCell>
        <mxCell id="ZVdhp5Pi1UJ5fs57FUtf-39" value="" style="endArrow=classic;html=1;rounded=0;entryX=0.5;entryY=0;entryDx=0;entryDy=0;" parent="1" target="ZVdhp5Pi1UJ5fs57FUtf-38" edge="1">
          <mxGeometry width="50" height="50" relative="1" as="geometry">
            <mxPoint x="705" y="990" as="sourcePoint" />
            <mxPoint x="755" y="940" as="targetPoint" />
          </mxGeometry>
        </mxCell>
      </root>
    </mxGraphModel>
  </diagram>
</mxfile>
